<svg id="Layer_1" data-name="Layer 1" xmlns="http://www.w3.org/2000/svg" viewBox="0 0 232 40"><defs><style>.cls-1{fill:#0069b2;}.cls-2{fill:#0d9639;}</style></defs><title>logo-scalefocus-color</title><path class="cls-1" d="M53.78,19.93C48.29,15.31,33.52,3.09,27.16,3.09c-4.73,0-11.88,5-17,9.32,1.19,1.17,2.2,2,5.06,4.6,3.25-3,9.33-7.09,11.92-7,4.33.23,10.69,5.72,22.08,14.4Z"/><path class="cls-1" d="M40.27,23.65s-7.93,7.6-13.11,7.6c-4.58,0-17.82-12.08-20.8-14.85L2,20.74c4.12,4.09,18.15,17.47,25.16,17.47,8.29,0,18.69-10.36,18.69-10.36Z"/><path class="cls-2" d="M27.2,15.54c-2.36,0-5.84,2.33-8.4,4.83,2.56,2.5,6,5.39,8.4,5.39s6.4-2.33,9-4.83c-2.57-2.5-6.6-5.39-9-5.39"/><path class="cls-1" d="M216.75,25a11.52,11.52,0,0,0,5.07,1.39c1.78,0,2.52-.58,2.52-1.55s-.59-1.47-2.75-2.21c-4-1.32-5.46-3.45-5.42-5.7,0-3.56,3-6.23,7.71-6.23a12.44,12.44,0,0,1,5.3,1.12l-1,4.07a9.44,9.44,0,0,0-4.1-1.08c-1.43,0-2.25.58-2.25,1.51s.74,1.39,3.06,2.21c3.6,1.24,5.07,3.1,5.11,5.85,0,3.56-2.75,6.16-8.17,6.16a13.36,13.36,0,0,1-6.12-1.35Z"/><path class="cls-1" d="M142.39,30.14V15.54h-2.52V11.2h2.52v-.74a8.76,8.76,0,0,1,2.36-6.35A7.76,7.76,0,0,1,150,2.21a12.74,12.74,0,0,1,3.1.39l-.23,4.53a6.28,6.28,0,0,0-1.9-.27c-1.94,0-2.75,1.51-2.75,3.37v1H152v4.34h-3.75v14.6Z"/><path class="cls-1" d="M173.22,20.46c0,6.93-4.92,10.1-10,10.1-5.54,0-9.8-3.64-9.8-9.76s4-10.07,10.15-10.07c5.77,0,9.64,4,9.64,9.72m-13.71.19c0,3.25,1.35,5.69,3.87,5.69,2.33,0,3.76-2.28,3.76-5.73,0-2.79-1.08-5.66-3.76-5.66s-3.87,2.91-3.87,5.69"/><path class="cls-1" d="M191.18,29.63a13.47,13.47,0,0,1-5.27.89c-6.12,0-10-3.76-10-9.68,0-5.54,3.8-10.07,10.85-10.07a13.59,13.59,0,0,1,4.49.74l-.93,4.38a8.08,8.08,0,0,0-3.29-.58,4.9,4.9,0,0,0-5.07,5.3,5,5,0,0,0,5.19,5.3,8.35,8.35,0,0,0,3.37-.62Z"/><path class="cls-1" d="M212.28,24.06c0,2.48.08,4.49.16,6.08h-5.11l-.27-2.67h-.12a6.76,6.76,0,0,1-5.92,3.1c-3.87,0-6.66-2.4-6.66-8.25V11.2h5.88V21.39c0,2.75.89,4.41,3,4.41a3.27,3.27,0,0,0,3.18-3.33V11.2h5.88Z"/><path class="cls-2" d="M61.81,26.69A9.63,9.63,0,0,0,66.35,28c2.44,0,3.6-1.2,3.6-2.79s-1-2.48-3.45-3.41c-3.41-1.24-5-3.06-5-5.31,0-3,2.48-5.5,6.47-5.5a8.68,8.68,0,0,1,4.57,1.16l-.81,2.48a7.23,7.23,0,0,0-3.83-1.12c-2,0-3.1,1.16-3.1,2.56,0,1.55,1.09,2.24,3.52,3.21,3.22,1.2,4.92,2.83,4.92,5.61,0,3.33-2.59,5.65-7,5.65A10.68,10.68,0,0,1,61,29.25Z"/><path class="cls-2" d="M91,29.48a13.13,13.13,0,0,1-5.38,1.08c-5.65,0-9.33-3.83-9.33-9.56s4-10,10.07-10a10.69,10.69,0,0,1,4.72,1l-.78,2.59a8.29,8.29,0,0,0-3.95-.89c-4.3,0-6.62,3.22-6.62,7.09,0,4.34,2.79,7,6.51,7a9.76,9.76,0,0,0,4.18-.89Z"/><path class="cls-2" d="M108.13,25.65a31.13,31.13,0,0,0,.27,4.49h-3.06l-.27-2.36H105a7,7,0,0,1-5.73,2.79,5.34,5.34,0,0,1-5.73-5.38c0-4.53,4-7,11.27-7v-.39c0-1.51-.43-4.34-4.26-4.3a9,9,0,0,0-4.92,1.39l-.77-2.29A12.15,12.15,0,0,1,101,11c5.74,0,7.13,3.91,7.13,7.63Zm-3.29-5.08c-3.72-.08-7.94.58-7.94,4.22A3,3,0,0,0,100.07,28a4.73,4.73,0,0,0,4.61-3.14,3.87,3.87,0,0,0,.15-1.08Z"/><rect class="cls-2" x="113.62" y="2.64" width="3.41" height="27.5"/><path class="cls-2" d="M124.66,21.39c.08,4.61,3,6.5,6.43,6.5a12.16,12.16,0,0,0,5.19-1l.62,2.44a15.21,15.21,0,0,1-6.27,1.2c-5.77,0-9.22-3.83-9.22-9.48S124.73,11,130.2,11c6.16,0,7.74,5.34,7.74,8.79a8.48,8.48,0,0,1-.12,1.59Zm10-2.44c0-2.13-.89-5.5-4.72-5.5-3.48,0-5,3.14-5.23,5.5Z"/><path class="cls-2" d="M164.81,20.88a1.36,1.36,0,1,1-1.36-1.36,1.36,1.36,0,0,1,1.36,1.36"/></svg>